<svg width="542" height="547" viewBox="0 0 542 547" fill="none" xmlns="http://www.w3.org/2000/svg">
<rect x="243.836" width="61.2051" height="61.2051" fill="#6A519F"/>
<rect x="243.836" y="122.41" width="61.2051" height="61.2051" fill="#6A519F"/>
<rect x="243.836" y="363.29" width="61.2051" height="61.2051" fill="#6A519F"/>
<rect x="243.836" y="485.7" width="61.2051" height="61.2051" fill="#6A519F"/>
<rect x="122.41" y="121.179" width="61.2051" height="61.2051" fill="#CF5A9D"/>
<rect x="122.41" y="363.667" width="61.2051" height="61.2051" fill="#CF5A9D"/>
<rect width="61.2051" height="61.2051" transform="matrix(-1 0 0 1 426.467 363.667)" fill="#CF5A9D"/>
<rect x="122.41" y="242.488" width="61.2051" height="61.2051" fill="#6A519F"/>
<rect x="183.615" y="242.488" width="61.2051" height="61.2051" fill="#6A519F"/>
<rect y="242.488" width="61.2051" height="61.2051" fill="#6A519F"/>
<rect x="480.375" y="242.488" width="61.2051" height="61.2051" fill="#6A519F"/>
<rect x="305.041" y="242.488" width="61.2051" height="61.2051" fill="#6A519F"/>
<rect x="366.246" y="242.488" width="61.2051" height="61.2051" fill="#6A519F"/>
<rect x="361.613" y="121.179" width="61.2051" height="61.2051" fill="#CF5A9D"/>
<rect x="61.2051" y="61.2051" width="61.2051" height="61.2051" fill="#CF5A9D"/>
<rect x="61.2051" y="424.495" width="61.2051" height="61.2051" fill="#CF5A9D"/>
<rect width="61.2051" height="61.2051" transform="matrix(-1 0 0 1 487.672 424.495)" fill="#CF5A9D"/>
<rect x="422.818" y="61.2051" width="61.2051" height="61.2051" fill="#CF5A9D"/>
</svg>
